<svg xmlns="http://www.w3.org/2000/svg" width="800" height="800" viewBox="0 0 800 800">
  <defs>
    <style>
      @import url('https://fonts.googleapis.com/css2?family=JetBrains+Mono:wght@400;700&amp;display=swap');
      text { font-family: 'JetBrains Mono', 'SF Mono', 'Menlo', monospace; }
    </style>
  </defs>

  <rect width="800" height="800" rx="10" fill="#282828"/>

  <rect width="800" height="36" rx="10" fill="#1d2021"/>
  <rect y="26" width="800" height="10" fill="#1d2021"/>
  <circle cx="22" cy="18" r="7" fill="#cc241d"/>
  <circle cx="44" cy="18" r="7" fill="#d79921"/>
  <circle cx="66" cy="18" r="7" fill="#98971a"/>
  <text x="400" y="23" text-anchor="middle" fill="#928374" font-size="13">git考古学 — Chapter 2</text>

  <text x="400" y="200" text-anchor="middle" fill="#3c3836" font-size="200" font-weight="700">02</text>

  <text x="400" y="330" text-anchor="middle" fill="#fabd2f" font-size="24" font-weight="700">エンジニアの「戦闘力」から、</text>
  <text x="400" y="368" text-anchor="middle" fill="#fabd2f" font-size="24" font-weight="700">チームの「構造力」へ</text>

  <text x="400" y="420" text-anchor="middle" fill="#928374" font-size="16">Team Health</text>

  <!-- Decorative: team structure diagram -->
  <circle cx="400" cy="560" r="40" fill="none" stroke="#8ec07c" stroke-width="2" opacity="0.6"/>
  <circle cx="300" cy="620" r="25" fill="none" stroke="#83a598" stroke-width="2" opacity="0.6"/>
  <circle cx="500" cy="620" r="25" fill="none" stroke="#83a598" stroke-width="2" opacity="0.6"/>
  <circle cx="340" cy="700" r="20" fill="none" stroke="#d3869b" stroke-width="2" opacity="0.6"/>
  <circle cx="460" cy="700" r="20" fill="none" stroke="#d3869b" stroke-width="2" opacity="0.6"/>

  <line x1="400" y1="600" x2="300" y2="620" stroke="#665c54" stroke-width="1"/>
  <line x1="400" y1="600" x2="500" y2="620" stroke="#665c54" stroke-width="1"/>
  <line x1="300" y1="645" x2="340" y2="700" stroke="#665c54" stroke-width="1"/>
  <line x1="500" y1="645" x2="460" y2="700" stroke="#665c54" stroke-width="1"/>

  <circle cx="400" cy="560" r="5" fill="#8ec07c"/>
  <circle cx="300" cy="620" r="4" fill="#83a598"/>
  <circle cx="500" cy="620" r="4" fill="#83a598"/>
  <circle cx="340" cy="700" r="3" fill="#d3869b"/>
  <circle cx="460" cy="700" r="3" fill="#d3869b"/>

  <text x="30" y="760" fill="#8ec07c" font-size="13">$ eis team --config teams.yaml</text>
  <rect x="370" y="747" width="8" height="16" fill="#ebdbb2" opacity="0.7"/>
</svg>