<svg xmlns="http://www.w3.org/2000/svg" width="800" height="800" viewBox="0 0 800 800">
  <defs>
    <style>
      @import url('https://fonts.googleapis.com/css2?family=JetBrains+Mono:wght@400;700&amp;display=swap');
      text { font-family: 'JetBrains Mono', 'SF Mono', 'Menlo', monospace; }
    </style>
  </defs>

  <rect width="800" height="800" fill="#282828"/>

  <rect width="800" height="36" fill="#1d2021"/>
  <rect y="26" width="800" height="10" fill="#1d2021"/>
  <circle cx="22" cy="18" r="7" fill="#cc241d"/>
  <circle cx="44" cy="18" r="7" fill="#d79921"/>
  <circle cx="66" cy="18" r="7" fill="#98971a"/>
  <text x="400" y="23" text-anchor="middle" fill="#928374" font-size="13">git考古学 — Chapter 7</text>

  <text x="400" y="200" text-anchor="middle" fill="#3c3836" font-size="200" font-weight="700">07</text>

  <text x="400" y="330" text-anchor="middle" fill="#fabd2f" font-size="24" font-weight="700">コードの宇宙を観測する</text>

  <text x="400" y="390" text-anchor="middle" fill="#928374" font-size="16">Observing the Universe of Code</text>

  <!-- Decorative: four forces -->
  <circle cx="400" cy="570" r="80" fill="none" stroke="#665c54" stroke-width="1" stroke-dasharray="4" opacity="0.5"/>

  <circle cx="400" cy="490" r="12" fill="#d3869b" opacity="0.8"/>
  <text x="400" y="475" text-anchor="middle" fill="#d3869b" font-size="11">Gravity</text>

  <circle cx="480" cy="570" r="12" fill="#b8bb26" opacity="0.8"/>
  <text x="510" y="565" fill="#b8bb26" font-size="11">Strong</text>

  <circle cx="400" cy="650" r="12" fill="#83a598" opacity="0.8"/>
  <text x="400" y="680" text-anchor="middle" fill="#83a598" font-size="11">Weak</text>

  <circle cx="320" cy="570" r="12" fill="#fabd2f" opacity="0.8"/>
  <text x="280" y="565" fill="#fabd2f" font-size="11" text-anchor="end">EM</text>

  <!-- Connecting lines -->
  <line x1="400" y1="502" x2="468" y2="560" stroke="#665c54" stroke-width="1" opacity="0.4"/>
  <line x1="468" y1="580" x2="412" y2="640" stroke="#665c54" stroke-width="1" opacity="0.4"/>
  <line x1="388" y1="640" x2="332" y2="580" stroke="#665c54" stroke-width="1" opacity="0.4"/>
  <line x1="332" y1="560" x2="400" y2="502" stroke="#665c54" stroke-width="1" opacity="0.4"/>

  <text x="30" y="760" fill="#8ec07c" font-size="13">$ # four fundamental forces of code</text>
  <rect x="410" y="747" width="8" height="16" fill="#ebdbb2" opacity="0.7"/>
</svg>