<svg xmlns="http://www.w3.org/2000/svg" width="800" height="800" viewBox="0 0 800 800">
  <defs>
    <style>
      @import url('https://fonts.googleapis.com/css2?family=JetBrains+Mono:wght@400;700&amp;display=swap');
      text { font-family: 'JetBrains Mono', 'SF Mono', 'Menlo', monospace; }
    </style>
  </defs>

  <rect width="800" height="800" fill="#282828"/>

  <rect width="800" height="36" fill="#1d2021"/>
  <rect y="26" width="800" height="10" fill="#1d2021"/>
  <circle cx="22" cy="18" r="7" fill="#cc241d"/>
  <circle cx="44" cy="18" r="7" fill="#d79921"/>
  <circle cx="66" cy="18" r="7" fill="#98971a"/>
  <text x="400" y="23" text-anchor="middle" fill="#928374" font-size="13">git考古学 — Chapter 4</text>

  <text x="400" y="200" text-anchor="middle" fill="#3c3836" font-size="200" font-weight="700">04</text>

  <text x="400" y="340" text-anchor="middle" fill="#fabd2f" font-size="26" font-weight="700">Backend Architectは収束する</text>

  <text x="400" y="400" text-anchor="middle" fill="#928374" font-size="16">Backend Architects Converge</text>

  <!-- Decorative: converging lines -->
  <line x1="150" y1="490" x2="400" y2="650" stroke="#d3869b" stroke-width="1.5" opacity="0.5"/>
  <line x1="250" y1="490" x2="400" y2="650" stroke="#d3869b" stroke-width="1.5" opacity="0.6"/>
  <line x1="350" y1="490" x2="400" y2="650" stroke="#d3869b" stroke-width="1.5" opacity="0.7"/>
  <line x1="450" y1="490" x2="400" y2="650" stroke="#d3869b" stroke-width="1.5" opacity="0.7"/>
  <line x1="550" y1="490" x2="400" y2="650" stroke="#d3869b" stroke-width="1.5" opacity="0.6"/>
  <line x1="650" y1="490" x2="400" y2="650" stroke="#d3869b" stroke-width="1.5" opacity="0.5"/>

  <circle cx="150" cy="490" r="5" fill="#83a598" opacity="0.6"/>
  <circle cx="250" cy="490" r="5" fill="#b8bb26" opacity="0.7"/>
  <circle cx="350" cy="490" r="5" fill="#fabd2f" opacity="0.8"/>
  <circle cx="450" cy="490" r="5" fill="#8ec07c" opacity="0.8"/>
  <circle cx="550" cy="490" r="5" fill="#b8bb26" opacity="0.7"/>
  <circle cx="650" cy="490" r="5" fill="#83a598" opacity="0.6"/>

  <circle cx="400" cy="650" r="12" fill="#d3869b"/>
  <text x="400" y="690" text-anchor="middle" fill="#928374" font-size="11">Convergence Point</text>

  <text x="30" y="760" fill="#8ec07c" font-size="13">$ eis team --backend --architects</text>
  <rect x="405" y="747" width="8" height="16" fill="#ebdbb2" opacity="0.7"/>
</svg>