<svg xmlns="http://www.w3.org/2000/svg" width="800" height="800" viewBox="0 0 800 800">
  <defs>
    <style>
      @import url('https://fonts.googleapis.com/css2?family=JetBrains+Mono:wght@400;700&amp;display=swap');
      text { font-family: 'JetBrains Mono', 'SF Mono', 'Menlo', monospace; }
    </style>
  </defs>

  <rect width="800" height="800" rx="10" fill="#282828"/>

  <rect width="800" height="36" rx="10" fill="#1d2021"/>
  <rect y="26" width="800" height="10" fill="#1d2021"/>
  <circle cx="22" cy="18" r="7" fill="#cc241d"/>
  <circle cx="44" cy="18" r="7" fill="#d79921"/>
  <circle cx="66" cy="18" r="7" fill="#98971a"/>
  <text x="400" y="23" text-anchor="middle" fill="#928374" font-size="13">git考古学 — Chapter 5</text>

  <text x="400" y="200" text-anchor="middle" fill="#3c3836" font-size="200" font-weight="700">05</text>

  <text x="400" y="340" text-anchor="middle" fill="#fabd2f" font-size="32" font-weight="700">タイムライン</text>

  <text x="400" y="400" text-anchor="middle" fill="#928374" font-size="16">Timeline</text>

  <!-- Decorative: timeline with events -->
  <line x1="100" y1="500" x2="700" y2="500" stroke="#665c54" stroke-width="2"/>

  <!-- Timeline dots and markers -->
  <circle cx="150" cy="500" r="6" fill="#b8bb26"/>
  <line x1="150" y1="470" x2="150" y2="494" stroke="#b8bb26" stroke-width="1"/>
  <text x="150" y="460" text-anchor="middle" fill="#b8bb26" font-size="10">Q1</text>

  <circle cx="280" cy="500" r="8" fill="#fabd2f"/>
  <line x1="280" y1="510" x2="280" y2="540" stroke="#fabd2f" stroke-width="1"/>
  <text x="280" y="555" text-anchor="middle" fill="#fabd2f" font-size="10">Q3</text>

  <circle cx="400" cy="500" r="6" fill="#d3869b"/>
  <line x1="400" y1="470" x2="400" y2="494" stroke="#d3869b" stroke-width="1"/>
  <text x="400" y="460" text-anchor="middle" fill="#d3869b" font-size="10">Q5</text>

  <circle cx="520" cy="500" r="10" fill="#8ec07c"/>
  <line x1="520" y1="510" x2="520" y2="540" stroke="#8ec07c" stroke-width="1"/>
  <text x="520" y="555" text-anchor="middle" fill="#8ec07c" font-size="10">Q7</text>

  <circle cx="650" cy="500" r="6" fill="#83a598"/>
  <line x1="650" y1="470" x2="650" y2="494" stroke="#83a598" stroke-width="1"/>
  <text x="650" y="460" text-anchor="middle" fill="#83a598" font-size="10">Q9</text>

  <!-- Role transition labels -->
  <text x="200" y="620" fill="#b8bb26" font-size="11">Producer</text>
  <text x="340" y="640" fill="#fabd2f" font-size="11">Architect</text>
  <text x="500" y="620" fill="#8ec07c" font-size="11">Lead</text>

  <!-- Arrows -->
  <line x1="260" y1="615" x2="330" y2="633" stroke="#665c54" stroke-width="1"/>
  <line x1="420" y1="633" x2="490" y2="615" stroke="#665c54" stroke-width="1"/>

  <text x="30" y="760" fill="#8ec07c" font-size="13">$ eis timeline --author engineer-f</text>
  <rect x="418" y="747" width="8" height="16" fill="#ebdbb2" opacity="0.7"/>
</svg>