<svg xmlns="http://www.w3.org/2000/svg" width="800" height="800" viewBox="0 0 800 800">
  <defs>
    <style>
      @import url('https://fonts.googleapis.com/css2?family=JetBrains+Mono:wght@400;700&amp;display=swap');
      text { font-family: 'JetBrains Mono', 'SF Mono', 'Menlo', monospace; }
    </style>
  </defs>

  <rect width="800" height="800" fill="#282828"/>

  <rect width="800" height="36" fill="#1d2021"/>
  <rect y="26" width="800" height="10" fill="#1d2021"/>
  <circle cx="22" cy="18" r="7" fill="#cc241d"/>
  <circle cx="44" cy="18" r="7" fill="#d79921"/>
  <circle cx="66" cy="18" r="7" fill="#98971a"/>
  <text x="400" y="23" text-anchor="middle" fill="#928374" font-size="13">git考古学 — Chapter 3</text>

  <text x="400" y="200" text-anchor="middle" fill="#3c3836" font-size="200" font-weight="700">03</text>

  <text x="400" y="340" text-anchor="middle" fill="#fabd2f" font-size="28" font-weight="700">Architectには流派がある</text>

  <text x="400" y="400" text-anchor="middle" fill="#928374" font-size="16">Two Paths to Architect</text>

  <!-- Decorative: two diverging paths -->
  <line x1="400" y1="470" x2="400" y2="530" stroke="#665c54" stroke-width="2"/>
  <line x1="400" y1="530" x2="260" y2="680" stroke="#83a598" stroke-width="2"/>
  <line x1="400" y1="530" x2="540" y2="680" stroke="#d3869b" stroke-width="2"/>

  <circle cx="400" cy="470" r="8" fill="#fabd2f"/>

  <circle cx="260" cy="680" r="20" fill="none" stroke="#83a598" stroke-width="2"/>
  <text x="260" y="685" text-anchor="middle" fill="#83a598" font-size="11" font-weight="700">FE</text>
  <text x="260" y="720" text-anchor="middle" fill="#928374" font-size="11">Divergent</text>

  <circle cx="540" cy="680" r="20" fill="none" stroke="#d3869b" stroke-width="2"/>
  <text x="540" y="685" text-anchor="middle" fill="#d3869b" font-size="11" font-weight="700">BE</text>
  <text x="540" y="720" text-anchor="middle" fill="#928374" font-size="11">Convergent</text>

  <text x="30" y="760" fill="#8ec07c" font-size="13">$ eis analyze --classify architect</text>
  <rect x="393" y="747" width="8" height="16" fill="#ebdbb2" opacity="0.7"/>
</svg>