<svg xmlns="http://www.w3.org/2000/svg" width="960" height="660" viewBox="0 0 960 660">
  <defs>
    <style>
      @import url('https://fonts.googleapis.com/css2?family=JetBrains+Mono:wght@400;700&amp;display=swap');
      .mono { font-family: 'JetBrains Mono', 'SF Mono', 'Menlo', monospace; }
      .sans { font-family: -apple-system, BlinkMacSystemFont, 'Segoe UI', sans-serif; }
    </style>
    <symbol id="flame-on" viewBox="0 0 24 24">
      <path d="M12 2c-1.5 3.5-4 5.5-4 9 0 3 2 5 4 5s4-2 4-5c0-1.5-0.5-3-1.5-4.5-0.5 1-1 1.5-1.5 1.5 0-2-0.5-3.5-1-6z" fill="#fe8019"/>
      <path d="M12 8c-0.5 1-1.5 2-1.5 3.5 0 1.5 0.7 2.5 1.5 2.5s1.5-1 1.5-2.5c0-0.7-0.3-1.3-0.7-2-0.3 0.5-0.6 0.7-0.8 0.7 0-1-0-1.5 0-1.7z" fill="#fabd2f"/>
    </symbol>
    <symbol id="flame-off" viewBox="0 0 24 24">
      <path d="M12 2c-1.5 3.5-4 5.5-4 9 0 3 2 5 4 5s4-2 4-5c0-1.5-0.5-3-1.5-4.5-0.5 1-1 1.5-1.5 1.5 0-2-0.5-3.5-1-6z" fill="#504945" opacity="0.6"/>
      <line x1="6" y1="18" x2="18" y2="6" stroke="#cc241d" stroke-width="2"/>
    </symbol>
  </defs>

  <rect width="960" height="660" rx="12" fill="#1d2021"/>
  <rect x="0" y="0" width="4" height="660" rx="2" fill="#8ec07c"/>
  <text x="936" y="24" text-anchor="end" class="mono" fill="#504945" font-size="10">Fire Propagation · ch4</text>

  <text x="480" y="46" text-anchor="middle" class="sans" fill="#ebdbb2" font-size="22" font-weight="800" letter-spacing="1.2">Fire Propagation — With or Without a Transformer</text>
  <text x="480" y="68" text-anchor="middle" class="mono" fill="#928374" font-size="12">Does a Principle-layer decision ("strategy pivot") reach Implementation without extinguishing fire?</text>

  <text x="244" y="102" text-anchor="middle" class="sans" fill="#cc241d" font-size="18" font-weight="800">✕  Without Transformer</text>
  <text x="244" y="120" text-anchor="middle" class="mono" fill="#7c6f64" font-size="11">raw message travels unchanged</text>
  <text x="716" y="102" text-anchor="middle" class="sans" fill="#b8bb26" font-size="18" font-weight="800">✓  With Transformer</text>
  <text x="716" y="120" text-anchor="middle" class="mono" fill="#7c6f64" font-size="11">each transformation is performed</text>

  <line x1="480" y1="140" x2="480" y2="600" stroke="#3c3836" stroke-width="1" stroke-dasharray="4 4"/>

  <!-- ============ PANEL A: No Transformer ============ -->
  <rect x="40" y="140" width="408" height="76" rx="10" fill="#282828" stroke="#fabd2f" stroke-width="1.5"/>
  <rect x="40" y="140" width="6" height="76" rx="3" fill="#fabd2f"/>
  <use href="#flame-on" x="60" y="162" width="28" height="28"/>
  <text x="100" y="172" class="sans" fill="#fabd2f" font-size="14" font-weight="800">Principle</text>
  <text x="100" y="192" class="sans" fill="#ebdbb2" font-size="13" font-weight="700">"Next quarter, we pivot our strategy."</text>
  <text x="100" y="208" class="sans" fill="#928374" font-size="10">a locally correct decision at the Principle layer</text>

  <g>
    <line x1="244" y1="228" x2="244" y2="268" stroke="#504945" stroke-width="2" stroke-dasharray="4 3"/>
    <polygon points="238,264 250,264 244,274" fill="#504945"/>
  </g>
  <text x="244" y="248" text-anchor="middle" class="sans" fill="#cc241d" font-size="11" font-weight="700">✕  no transformation</text>
  <text x="244" y="262" text-anchor="middle" class="sans" fill="#7c6f64" font-size="10">raw Principle vocab descends</text>

  <rect x="40" y="282" width="408" height="58" rx="10" fill="#282828" stroke="#d3869b" stroke-width="1" stroke-dasharray="3 3" opacity="0.55"/>
  <rect x="40" y="282" width="6" height="58" rx="3" fill="#d3869b" opacity="0.55"/>
  <use href="#flame-off" x="60" y="295" width="24" height="24"/>
  <text x="100" y="310" class="sans" fill="#d3869b" font-size="14" font-weight="800" opacity="0.6">Structure</text>
  <text x="100" y="330" class="sans" fill="#7c6f64" font-size="11">(hollow) thought was never reshaped into form</text>

  <g>
    <line x1="244" y1="354" x2="244" y2="394" stroke="#504945" stroke-width="2" stroke-dasharray="4 3"/>
    <polygon points="238,390 250,390 244,400" fill="#504945"/>
  </g>
  <text x="244" y="374" text-anchor="middle" class="sans" fill="#cc241d" font-size="11" font-weight="700">✕  no transformation</text>
  <text x="244" y="388" text-anchor="middle" class="sans" fill="#7c6f64" font-size="10">abstraction falls straight on the floor</text>

  <rect x="40" y="408" width="408" height="120" rx="10" fill="#282828" stroke="#83a598" stroke-width="1.5"/>
  <rect x="40" y="408" width="6" height="120" rx="3" fill="#83a598"/>
  <use href="#flame-off" x="60" y="428" width="28" height="28"/>
  <text x="100" y="438" class="sans" fill="#83a598" font-size="14" font-weight="800">Implementation</text>
  <text x="100" y="456" class="sans" fill="#cc241d" font-size="12" font-weight="700">"Six months of work gets thrown away."</text>
  <text x="100" y="474" class="sans" fill="#cc241d" font-size="12" font-weight="700">"My judgment was never needed."</text>
  <text x="100" y="497" class="sans" fill="#7c6f64" font-size="11">is what gets received  →  the fire goes out</text>
  <text x="100" y="515" class="sans" fill="#7c6f64" font-size="11">next time, no one raises their voice either</text>

  <rect x="60" y="548" width="368" height="40" rx="8" fill="#1d2021" stroke="#cc241d" stroke-width="1"/>
  <text x="244" y="566" text-anchor="middle" class="sans" fill="#fb4934" font-size="12" font-weight="700">The organization's fire gradually goes down</text>
  <text x="244" y="582" text-anchor="middle" class="sans" fill="#928374" font-size="10">everyone works in good faith, yet nothing moves forward</text>

  <!-- ============ PANEL B: With Transformer ============ -->
  <rect x="512" y="140" width="408" height="76" rx="10" fill="#282828" stroke="#fabd2f" stroke-width="1.5"/>
  <rect x="512" y="140" width="6" height="76" rx="3" fill="#fabd2f"/>
  <use href="#flame-on" x="532" y="162" width="28" height="28"/>
  <text x="572" y="172" class="sans" fill="#fabd2f" font-size="14" font-weight="800">Principle</text>
  <text x="572" y="192" class="sans" fill="#ebdbb2" font-size="13" font-weight="700">"Next quarter, we pivot our strategy."</text>
  <text x="572" y="208" class="sans" fill="#928374" font-size="10">a locally correct decision at the Principle layer</text>

  <g>
    <line x1="704" y1="228" x2="704" y2="268" stroke="#8ec07c" stroke-width="2.5"/>
    <polygon points="698,264 710,264 704,276" fill="#8ec07c"/>
  </g>
  <g>
    <line x1="728" y1="228" x2="728" y2="268" stroke="#8ec07c" stroke-width="2"/>
    <polygon points="722,232 734,232 728,222" fill="#8ec07c"/>
  </g>
  <text x="716" y="248" text-anchor="middle" class="sans" fill="#8ec07c" font-size="11" font-weight="700">✓  transformer translates</text>
  <text x="716" y="262" text-anchor="middle" class="sans" fill="#7c6f64" font-size="10">thought into structural form</text>

  <rect x="512" y="282" width="408" height="76" rx="10" fill="#282828" stroke="#d3869b" stroke-width="1.5"/>
  <rect x="512" y="282" width="6" height="76" rx="3" fill="#d3869b"/>
  <use href="#flame-on" x="532" y="294" width="26" height="26"/>
  <text x="570" y="305" class="sans" fill="#d3869b" font-size="14" font-weight="800">Structure</text>
  <text x="570" y="324" class="sans" fill="#ebdbb2" font-size="12" font-weight="700">"New direction Y, with X as its foundation"</text>
  <text x="570" y="342" class="sans" fill="#928374" font-size="11">transformer sits here, connecting both directions</text>

  <g>
    <line x1="704" y1="370" x2="704" y2="402" stroke="#8ec07c" stroke-width="2.5"/>
    <polygon points="698,398 710,398 704,408" fill="#8ec07c"/>
  </g>
  <g>
    <line x1="728" y1="370" x2="728" y2="402" stroke="#8ec07c" stroke-width="2"/>
    <polygon points="722,374 734,374 728,364" fill="#8ec07c"/>
  </g>
  <text x="716" y="388" text-anchor="middle" class="sans" fill="#8ec07c" font-size="11" font-weight="700">✓  transformer translates</text>
  <text x="716" y="402" text-anchor="middle" class="sans" fill="#7c6f64" font-size="10">structure into hands-on grain</text>

  <rect x="512" y="420" width="408" height="108" rx="10" fill="#282828" stroke="#83a598" stroke-width="1.5"/>
  <rect x="512" y="420" width="6" height="108" rx="3" fill="#83a598"/>
  <use href="#flame-on" x="532" y="440" width="28" height="28"/>
  <text x="572" y="450" class="sans" fill="#83a598" font-size="14" font-weight="800">Implementation</text>
  <text x="572" y="468" class="sans" fill="#b8bb26" font-size="12" font-weight="700">"The X we built remains — it's the foundation of Y."</text>
  <text x="572" y="486" class="sans" fill="#b8bb26" font-size="12" font-weight="700">"Y stands on top of X."</text>
  <text x="572" y="507" class="sans" fill="#7c6f64" font-size="11">is what gets received  →  fire is preserved, even amplified</text>

  <rect x="532" y="548" width="368" height="40" rx="8" fill="#1d2021" stroke="#b8bb26" stroke-width="1"/>
  <text x="716" y="566" text-anchor="middle" class="sans" fill="#b8bb26" font-size="12" font-weight="700">The organization's fire is amplified</text>
  <text x="716" y="582" text-anchor="middle" class="sans" fill="#928374" font-size="10">decisions get accepted, and become material for the next one</text>

  <!-- Footer -->
  <text x="480" y="628" text-anchor="middle" class="sans" fill="#a89984" font-size="12">A single-layer decision is locally correct. What's broken is that no transformation happens on the path to the next layer.</text>
  <text x="480" y="648" text-anchor="middle" class="sans" fill="#7c6f64" font-size="10">The transformer sits on the fire's propagation path. They can extinguish it, or amplify it.</text>
</svg>
