<svg xmlns="http://www.w3.org/2000/svg" width="960" height="960" viewBox="0 0 960 960">
  <rect width="960" height="960" fill="#1d2021"/>
  <circle cx="50" cy="20" r="1" fill="#ebdbb2" opacity="0.2"/>
  <circle cx="910" cy="30" r="0.8" fill="#ebdbb2" opacity="0.25"/>
  <circle cx="480" cy="10" r="1" fill="#ebdbb2" opacity="0.15"/>

  <text x="480" y="32" text-anchor="middle" fill="#ebdbb2" font-size="18" font-weight="800" font-family="-apple-system,sans-serif">Engineer Topology — 7-Axis Radar Profiles</text>
  <text x="480" y="50" text-anchor="middle" fill="#a89984" font-size="10" font-family="-apple-system,sans-serif">Role(6) × Style(8) × State(6) = 288 possible combinations. 9 representative profiles shown.</text>

  <!-- Macro for radar grid+axes (reused via g transform) -->
  <!-- 7 axes evenly spaced: 0°, 51.4°, 102.9°, 154.3°, 205.7°, 257.1°, 308.6° -->
  <!-- At r=65: (0,-65) (42,-49) (62,-5) (46,44) (-8,64) (-56,32) (-48,-40) -->
  <!-- At r=43: (0,-43) (28,-33) (41,-3) (30,29) (-5,43) (-37,21) (-32,-26) -->
  <!-- At r=22: (0,-22) (14,-17) (21,-2) (15,15) (-3,22) (-19,11) (-16,-13) -->

  <!-- Row 1 -->

  <!-- 1: Architect / Builder / Active -->
  <g transform="translate(160,180)">
    <polygon points="0,-65 42,-49 62,-5 46,44 -8,64 -56,32 -48,-40" fill="none" stroke="#3c3836" stroke-width="0.5"/>
    <polygon points="0,-43 28,-33 41,-3 30,29 -5,43 -37,21 -32,-26" fill="none" stroke="#3c3836" stroke-width="0.4"/>
    <polygon points="0,-22 14,-17 21,-2 15,15 -3,22 -19,11 -16,-13" fill="none" stroke="#3c3836" stroke-width="0.3"/>
    <line x1="0" y1="0" x2="0" y2="-65" stroke="#504945" stroke-width="0.4"/>
    <line x1="0" y1="0" x2="42" y2="-49" stroke="#504945" stroke-width="0.4"/>
    <line x1="0" y1="0" x2="62" y2="-5" stroke="#504945" stroke-width="0.4"/>
    <line x1="0" y1="0" x2="46" y2="44" stroke="#504945" stroke-width="0.4"/>
    <line x1="0" y1="0" x2="-8" y2="64" stroke="#504945" stroke-width="0.4"/>
    <line x1="0" y1="0" x2="-56" y2="32" stroke="#504945" stroke-width="0.4"/>
    <line x1="0" y1="0" x2="-48" y2="-40" stroke="#504945" stroke-width="0.4"/>
    <text x="0" y="-72" text-anchor="middle" fill="#665c54" font-size="7" font-family="-apple-system,sans-serif">Prod</text>
    <text x="50" y="-52" fill="#665c54" font-size="7" font-family="-apple-system,sans-serif">Qual</text>
    <text x="70" y="-1" fill="#665c54" font-size="7" font-family="-apple-system,sans-serif">Surv</text>
    <text x="52" y="52" fill="#665c54" font-size="7" font-family="-apple-system,sans-serif">Design</text>
    <text x="-14" y="76" text-anchor="middle" fill="#665c54" font-size="7" font-family="-apple-system,sans-serif">Breadth</text>
    <text x="-64" y="36" text-anchor="end" fill="#665c54" font-size="7" font-family="-apple-system,sans-serif">Debt</text>
    <text x="-56" y="-43" text-anchor="end" fill="#665c54" font-size="7" font-family="-apple-system,sans-serif">Indisp</text>
    <!-- Prod85 Qual57 Surv88 Design100 Breadth81 Debt72 Indisp43 -->
    <polygon points="0,-55 24,-28 55,-4 46,44 -6,52 -40,23 -21,-17" fill="#fabd2f" fill-opacity="0.15" stroke="#fabd2f" stroke-width="1.5"/>
    <text x="0" y="92" text-anchor="middle" fill="#fabd2f" font-size="10" font-weight="700" font-family="-apple-system,sans-serif">Architect / Builder</text>
    <text x="0" y="104" text-anchor="middle" fill="#a89984" font-size="8" font-family="-apple-system,sans-serif">92 — the full package</text>
  </g>

  <!-- 2: Producer / Churn / Active -->
  <g transform="translate(480,180)">
    <polygon points="0,-65 42,-49 62,-5 46,44 -8,64 -56,32 -48,-40" fill="none" stroke="#3c3836" stroke-width="0.5"/>
    <polygon points="0,-43 28,-33 41,-3 30,29 -5,43 -37,21 -32,-26" fill="none" stroke="#3c3836" stroke-width="0.4"/>
    <polygon points="0,-22 14,-17 21,-2 15,15 -3,22 -19,11 -16,-13" fill="none" stroke="#3c3836" stroke-width="0.3"/>
    <line x1="0" y1="0" x2="0" y2="-65" stroke="#504945" stroke-width="0.4"/>
    <line x1="0" y1="0" x2="42" y2="-49" stroke="#504945" stroke-width="0.4"/>
    <line x1="0" y1="0" x2="62" y2="-5" stroke="#504945" stroke-width="0.4"/>
    <line x1="0" y1="0" x2="46" y2="44" stroke="#504945" stroke-width="0.4"/>
    <line x1="0" y1="0" x2="-8" y2="64" stroke="#504945" stroke-width="0.4"/>
    <line x1="0" y1="0" x2="-56" y2="32" stroke="#504945" stroke-width="0.4"/>
    <line x1="0" y1="0" x2="-48" y2="-40" stroke="#504945" stroke-width="0.4"/>
    <text x="0" y="-72" text-anchor="middle" fill="#665c54" font-size="7" font-family="-apple-system,sans-serif">Prod</text>
    <text x="50" y="-52" fill="#665c54" font-size="7" font-family="-apple-system,sans-serif">Qual</text>
    <text x="70" y="-1" fill="#665c54" font-size="7" font-family="-apple-system,sans-serif">Surv</text>
    <text x="52" y="52" fill="#665c54" font-size="7" font-family="-apple-system,sans-serif">Design</text>
    <text x="-14" y="76" text-anchor="middle" fill="#665c54" font-size="7" font-family="-apple-system,sans-serif">Breadth</text>
    <text x="-64" y="36" text-anchor="end" fill="#665c54" font-size="7" font-family="-apple-system,sans-serif">Debt</text>
    <text x="-56" y="-43" text-anchor="end" fill="#665c54" font-size="7" font-family="-apple-system,sans-serif">Indisp</text>
    <!-- Prod88 Qual18 Surv5 Design4 Breadth30 Debt0 Indisp10 -->
    <polygon points="0,-57 8,-9 3,-1 2,2 -2,19 0,0 -5,-4" fill="#fb4934" fill-opacity="0.15" stroke="#fb4934" stroke-width="1.5"/>
    <text x="0" y="92" text-anchor="middle" fill="#fb4934" font-size="10" font-weight="700" font-family="-apple-system,sans-serif">Producer / Churn</text>
    <text x="0" y="104" text-anchor="middle" fill="#a89984" font-size="8" font-family="-apple-system,sans-serif">13 — infinite rework loop</text>
  </g>

  <!-- 3: Producer / Rescue / Active -->
  <g transform="translate(800,180)">
    <polygon points="0,-65 42,-49 62,-5 46,44 -8,64 -56,32 -48,-40" fill="none" stroke="#3c3836" stroke-width="0.5"/>
    <polygon points="0,-43 28,-33 41,-3 30,29 -5,43 -37,21 -32,-26" fill="none" stroke="#3c3836" stroke-width="0.4"/>
    <polygon points="0,-22 14,-17 21,-2 15,15 -3,22 -19,11 -16,-13" fill="none" stroke="#3c3836" stroke-width="0.3"/>
    <line x1="0" y1="0" x2="0" y2="-65" stroke="#504945" stroke-width="0.4"/>
    <line x1="0" y1="0" x2="42" y2="-49" stroke="#504945" stroke-width="0.4"/>
    <line x1="0" y1="0" x2="62" y2="-5" stroke="#504945" stroke-width="0.4"/>
    <line x1="0" y1="0" x2="46" y2="44" stroke="#504945" stroke-width="0.4"/>
    <line x1="0" y1="0" x2="-8" y2="64" stroke="#504945" stroke-width="0.4"/>
    <line x1="0" y1="0" x2="-56" y2="32" stroke="#504945" stroke-width="0.4"/>
    <line x1="0" y1="0" x2="-48" y2="-40" stroke="#504945" stroke-width="0.4"/>
    <text x="0" y="-72" text-anchor="middle" fill="#665c54" font-size="7" font-family="-apple-system,sans-serif">Prod</text>
    <text x="50" y="-52" fill="#665c54" font-size="7" font-family="-apple-system,sans-serif">Qual</text>
    <text x="70" y="-1" fill="#665c54" font-size="7" font-family="-apple-system,sans-serif">Surv</text>
    <text x="52" y="52" fill="#665c54" font-size="7" font-family="-apple-system,sans-serif">Design</text>
    <text x="-14" y="76" text-anchor="middle" fill="#665c54" font-size="7" font-family="-apple-system,sans-serif">Breadth</text>
    <text x="-64" y="36" text-anchor="end" fill="#665c54" font-size="7" font-family="-apple-system,sans-serif">Debt</text>
    <text x="-56" y="-43" text-anchor="end" fill="#665c54" font-size="7" font-family="-apple-system,sans-serif">Indisp</text>
    <!-- Prod72 Qual65 Surv15 Design20 Breadth40 Debt88 Indisp15 -->
    <polygon points="0,-47 27,-32 9,-1 9,9 -3,26 -49,28 -7,-6" fill="#fe8019" fill-opacity="0.15" stroke="#fe8019" stroke-width="1.5"/>
    <text x="0" y="92" text-anchor="middle" fill="#fe8019" font-size="10" font-weight="700" font-family="-apple-system,sans-serif">Producer / Rescue</text>
    <text x="0" y="104" text-anchor="middle" fill="#a89984" font-size="8" font-family="-apple-system,sans-serif">35 — legacy cleanup hero</text>
  </g>

  <!-- Row 2 -->

  <!-- 4: — / Spread / Active -->
  <g transform="translate(160,460)">
    <polygon points="0,-65 42,-49 62,-5 46,44 -8,64 -56,32 -48,-40" fill="none" stroke="#3c3836" stroke-width="0.5"/>
    <polygon points="0,-43 28,-33 41,-3 30,29 -5,43 -37,21 -32,-26" fill="none" stroke="#3c3836" stroke-width="0.4"/>
    <polygon points="0,-22 14,-17 21,-2 15,15 -3,22 -19,11 -16,-13" fill="none" stroke="#3c3836" stroke-width="0.3"/>
    <line x1="0" y1="0" x2="0" y2="-65" stroke="#504945" stroke-width="0.4"/>
    <line x1="0" y1="0" x2="42" y2="-49" stroke="#504945" stroke-width="0.4"/>
    <line x1="0" y1="0" x2="62" y2="-5" stroke="#504945" stroke-width="0.4"/>
    <line x1="0" y1="0" x2="46" y2="44" stroke="#504945" stroke-width="0.4"/>
    <line x1="0" y1="0" x2="-8" y2="64" stroke="#504945" stroke-width="0.4"/>
    <line x1="0" y1="0" x2="-56" y2="32" stroke="#504945" stroke-width="0.4"/>
    <line x1="0" y1="0" x2="-48" y2="-40" stroke="#504945" stroke-width="0.4"/>
    <text x="0" y="-72" text-anchor="middle" fill="#665c54" font-size="7" font-family="-apple-system,sans-serif">Prod</text>
    <text x="50" y="-52" fill="#665c54" font-size="7" font-family="-apple-system,sans-serif">Qual</text>
    <text x="70" y="-1" fill="#665c54" font-size="7" font-family="-apple-system,sans-serif">Surv</text>
    <text x="52" y="52" fill="#665c54" font-size="7" font-family="-apple-system,sans-serif">Design</text>
    <text x="-14" y="76" text-anchor="middle" fill="#665c54" font-size="7" font-family="-apple-system,sans-serif">Breadth</text>
    <text x="-64" y="36" text-anchor="end" fill="#665c54" font-size="7" font-family="-apple-system,sans-serif">Debt</text>
    <text x="-56" y="-43" text-anchor="end" fill="#665c54" font-size="7" font-family="-apple-system,sans-serif">Indisp</text>
    <!-- Prod6 Qual70 Surv3 Design4 Breadth90 Debt0 Indisp5 -->
    <polygon points="0,-4 29,-34 2,-1 2,2 -7,58 0,0 -2,-2" fill="#83a598" fill-opacity="0.15" stroke="#83a598" stroke-width="1.5"/>
    <text x="0" y="92" text-anchor="middle" fill="#83a598" font-size="10" font-weight="700" font-family="-apple-system,sans-serif">— / Spread</text>
    <text x="0" y="104" text-anchor="middle" fill="#a89984" font-size="8" font-family="-apple-system,sans-serif">25 — wide but shallow</text>
  </g>

  <!-- 5: Anchor / Balanced / Active -->
  <g transform="translate(480,460)">
    <polygon points="0,-65 42,-49 62,-5 46,44 -8,64 -56,32 -48,-40" fill="none" stroke="#3c3836" stroke-width="0.5"/>
    <polygon points="0,-43 28,-33 41,-3 30,29 -5,43 -37,21 -32,-26" fill="none" stroke="#3c3836" stroke-width="0.4"/>
    <polygon points="0,-22 14,-17 21,-2 15,15 -3,22 -19,11 -16,-13" fill="none" stroke="#3c3836" stroke-width="0.3"/>
    <line x1="0" y1="0" x2="0" y2="-65" stroke="#504945" stroke-width="0.4"/>
    <line x1="0" y1="0" x2="42" y2="-49" stroke="#504945" stroke-width="0.4"/>
    <line x1="0" y1="0" x2="62" y2="-5" stroke="#504945" stroke-width="0.4"/>
    <line x1="0" y1="0" x2="46" y2="44" stroke="#504945" stroke-width="0.4"/>
    <line x1="0" y1="0" x2="-8" y2="64" stroke="#504945" stroke-width="0.4"/>
    <line x1="0" y1="0" x2="-56" y2="32" stroke="#504945" stroke-width="0.4"/>
    <line x1="0" y1="0" x2="-48" y2="-40" stroke="#504945" stroke-width="0.4"/>
    <text x="0" y="-72" text-anchor="middle" fill="#665c54" font-size="7" font-family="-apple-system,sans-serif">Prod</text>
    <text x="50" y="-52" fill="#665c54" font-size="7" font-family="-apple-system,sans-serif">Qual</text>
    <text x="70" y="-1" fill="#665c54" font-size="7" font-family="-apple-system,sans-serif">Surv</text>
    <text x="52" y="52" fill="#665c54" font-size="7" font-family="-apple-system,sans-serif">Design</text>
    <text x="-14" y="76" text-anchor="middle" fill="#665c54" font-size="7" font-family="-apple-system,sans-serif">Breadth</text>
    <text x="-64" y="36" text-anchor="end" fill="#665c54" font-size="7" font-family="-apple-system,sans-serif">Debt</text>
    <text x="-56" y="-43" text-anchor="end" fill="#665c54" font-size="7" font-family="-apple-system,sans-serif">Indisp</text>
    <!-- Prod45 Qual85 Surv55 Design35 Breadth40 Debt50 Indisp20 -->
    <polygon points="0,-29 36,-42 34,-3 16,15 -3,26 -28,16 -10,-8" fill="#8ec07c" fill-opacity="0.15" stroke="#8ec07c" stroke-width="1.5"/>
    <text x="0" y="92" text-anchor="middle" fill="#8ec07c" font-size="10" font-weight="700" font-family="-apple-system,sans-serif">Anchor / Balanced</text>
    <text x="0" y="104" text-anchor="middle" fill="#a89984" font-size="8" font-family="-apple-system,sans-serif">40 — reliable, no peaks</text>
  </g>

  <!-- 6: — / — / Fragile -->
  <g transform="translate(800,460)">
    <polygon points="0,-65 42,-49 62,-5 46,44 -8,64 -56,32 -48,-40" fill="none" stroke="#3c3836" stroke-width="0.5"/>
    <polygon points="0,-43 28,-33 41,-3 30,29 -5,43 -37,21 -32,-26" fill="none" stroke="#3c3836" stroke-width="0.4"/>
    <polygon points="0,-22 14,-17 21,-2 15,15 -3,22 -19,11 -16,-13" fill="none" stroke="#3c3836" stroke-width="0.3"/>
    <line x1="0" y1="0" x2="0" y2="-65" stroke="#504945" stroke-width="0.4"/>
    <line x1="0" y1="0" x2="42" y2="-49" stroke="#504945" stroke-width="0.4"/>
    <line x1="0" y1="0" x2="62" y2="-5" stroke="#504945" stroke-width="0.4"/>
    <line x1="0" y1="0" x2="46" y2="44" stroke="#504945" stroke-width="0.4"/>
    <line x1="0" y1="0" x2="-8" y2="64" stroke="#504945" stroke-width="0.4"/>
    <line x1="0" y1="0" x2="-56" y2="32" stroke="#504945" stroke-width="0.4"/>
    <line x1="0" y1="0" x2="-48" y2="-40" stroke="#504945" stroke-width="0.4"/>
    <text x="0" y="-72" text-anchor="middle" fill="#665c54" font-size="7" font-family="-apple-system,sans-serif">Prod</text>
    <text x="50" y="-52" fill="#665c54" font-size="7" font-family="-apple-system,sans-serif">Qual</text>
    <text x="70" y="-1" fill="#665c54" font-size="7" font-family="-apple-system,sans-serif">Surv</text>
    <text x="52" y="52" fill="#665c54" font-size="7" font-family="-apple-system,sans-serif">Design</text>
    <text x="-14" y="76" text-anchor="middle" fill="#665c54" font-size="7" font-family="-apple-system,sans-serif">Breadth</text>
    <text x="-64" y="36" text-anchor="end" fill="#665c54" font-size="7" font-family="-apple-system,sans-serif">Debt</text>
    <text x="-56" y="-43" text-anchor="end" fill="#665c54" font-size="7" font-family="-apple-system,sans-serif">Indisp</text>
    <!-- Prod15 Qual62 Surv72 Design28 Breadth45 Debt5 Indisp60 -->
    <polygon points="0,-10 26,-30 45,-4 13,12 -4,29 -3,2 -29,-24" fill="#d3869b" fill-opacity="0.15" stroke="#d3869b" stroke-width="1.5"/>
    <text x="0" y="92" text-anchor="middle" fill="#d3869b" font-size="10" font-weight="700" font-family="-apple-system,sans-serif">— / — / Fragile</text>
    <text x="0" y="104" text-anchor="middle" fill="#a89984" font-size="8" font-family="-apple-system,sans-serif">31 — dormant, not durable</text>
  </g>

  <!-- Row 3 -->

  <!-- 7: Producer / Mass / Active -->
  <g transform="translate(160,740)">
    <polygon points="0,-65 42,-49 62,-5 46,44 -8,64 -56,32 -48,-40" fill="none" stroke="#3c3836" stroke-width="0.5"/>
    <polygon points="0,-43 28,-33 41,-3 30,29 -5,43 -37,21 -32,-26" fill="none" stroke="#3c3836" stroke-width="0.4"/>
    <polygon points="0,-22 14,-17 21,-2 15,15 -3,22 -19,11 -16,-13" fill="none" stroke="#3c3836" stroke-width="0.3"/>
    <line x1="0" y1="0" x2="0" y2="-65" stroke="#504945" stroke-width="0.4"/>
    <line x1="0" y1="0" x2="42" y2="-49" stroke="#504945" stroke-width="0.4"/>
    <line x1="0" y1="0" x2="62" y2="-5" stroke="#504945" stroke-width="0.4"/>
    <line x1="0" y1="0" x2="46" y2="44" stroke="#504945" stroke-width="0.4"/>
    <line x1="0" y1="0" x2="-8" y2="64" stroke="#504945" stroke-width="0.4"/>
    <line x1="0" y1="0" x2="-56" y2="32" stroke="#504945" stroke-width="0.4"/>
    <line x1="0" y1="0" x2="-48" y2="-40" stroke="#504945" stroke-width="0.4"/>
    <text x="0" y="-72" text-anchor="middle" fill="#665c54" font-size="7" font-family="-apple-system,sans-serif">Prod</text>
    <text x="50" y="-52" fill="#665c54" font-size="7" font-family="-apple-system,sans-serif">Qual</text>
    <text x="70" y="-1" fill="#665c54" font-size="7" font-family="-apple-system,sans-serif">Surv</text>
    <text x="52" y="52" fill="#665c54" font-size="7" font-family="-apple-system,sans-serif">Design</text>
    <text x="-14" y="76" text-anchor="middle" fill="#665c54" font-size="7" font-family="-apple-system,sans-serif">Breadth</text>
    <text x="-64" y="36" text-anchor="end" fill="#665c54" font-size="7" font-family="-apple-system,sans-serif">Debt</text>
    <text x="-56" y="-43" text-anchor="end" fill="#665c54" font-size="7" font-family="-apple-system,sans-serif">Indisp</text>
    <!-- Prod82 Qual45 Surv18 Design10 Breadth50 Debt8 Indisp15 -->
    <polygon points="0,-53 19,-22 11,-1 5,4 -4,32 -4,3 -7,-6" fill="#fb4934" fill-opacity="0.12" stroke="#fb4934" stroke-width="1.5" opacity="0.7"/>
    <text x="0" y="92" text-anchor="middle" fill="#fb4934" font-size="10" font-weight="700" font-family="-apple-system,sans-serif" opacity="0.8">Producer / Mass</text>
    <text x="0" y="104" text-anchor="middle" fill="#a89984" font-size="8" font-family="-apple-system,sans-serif">28 — debt factory</text>
  </g>

  <!-- 8: Specialist / Builder / Active -->
  <g transform="translate(480,740)">
    <polygon points="0,-65 42,-49 62,-5 46,44 -8,64 -56,32 -48,-40" fill="none" stroke="#3c3836" stroke-width="0.5"/>
    <polygon points="0,-43 28,-33 41,-3 30,29 -5,43 -37,21 -32,-26" fill="none" stroke="#3c3836" stroke-width="0.4"/>
    <polygon points="0,-22 14,-17 21,-2 15,15 -3,22 -19,11 -16,-13" fill="none" stroke="#3c3836" stroke-width="0.3"/>
    <line x1="0" y1="0" x2="0" y2="-65" stroke="#504945" stroke-width="0.4"/>
    <line x1="0" y1="0" x2="42" y2="-49" stroke="#504945" stroke-width="0.4"/>
    <line x1="0" y1="0" x2="62" y2="-5" stroke="#504945" stroke-width="0.4"/>
    <line x1="0" y1="0" x2="46" y2="44" stroke="#504945" stroke-width="0.4"/>
    <line x1="0" y1="0" x2="-8" y2="64" stroke="#504945" stroke-width="0.4"/>
    <line x1="0" y1="0" x2="-56" y2="32" stroke="#504945" stroke-width="0.4"/>
    <line x1="0" y1="0" x2="-48" y2="-40" stroke="#504945" stroke-width="0.4"/>
    <text x="0" y="-72" text-anchor="middle" fill="#665c54" font-size="7" font-family="-apple-system,sans-serif">Prod</text>
    <text x="50" y="-52" fill="#665c54" font-size="7" font-family="-apple-system,sans-serif">Qual</text>
    <text x="70" y="-1" fill="#665c54" font-size="7" font-family="-apple-system,sans-serif">Surv</text>
    <text x="52" y="52" fill="#665c54" font-size="7" font-family="-apple-system,sans-serif">Design</text>
    <text x="-14" y="76" text-anchor="middle" fill="#665c54" font-size="7" font-family="-apple-system,sans-serif">Breadth</text>
    <text x="-64" y="36" text-anchor="end" fill="#665c54" font-size="7" font-family="-apple-system,sans-serif">Debt</text>
    <text x="-56" y="-43" text-anchor="end" fill="#665c54" font-size="7" font-family="-apple-system,sans-serif">Indisp</text>
    <!-- Prod60 Qual78 Surv82 Design55 Breadth15 Debt30 Indisp100 -->
    <polygon points="0,-39 33,-38 51,-4 25,24 -1,10 -17,10 -48,-40" fill="#b8bb26" fill-opacity="0.15" stroke="#b8bb26" stroke-width="1.5"/>
    <text x="0" y="92" text-anchor="middle" fill="#b8bb26" font-size="10" font-weight="700" font-family="-apple-system,sans-serif">Specialist / Builder</text>
    <text x="0" y="104" text-anchor="middle" fill="#a89984" font-size="8" font-family="-apple-system,sans-serif">55 — deep domain, bus factor risk</text>
  </g>

  <!-- 9: — / — / Growing -->
  <g transform="translate(800,740)">
    <polygon points="0,-65 42,-49 62,-5 46,44 -8,64 -56,32 -48,-40" fill="none" stroke="#3c3836" stroke-width="0.5"/>
    <polygon points="0,-43 28,-33 41,-3 30,29 -5,43 -37,21 -32,-26" fill="none" stroke="#3c3836" stroke-width="0.4"/>
    <polygon points="0,-22 14,-17 21,-2 15,15 -3,22 -19,11 -16,-13" fill="none" stroke="#3c3836" stroke-width="0.3"/>
    <line x1="0" y1="0" x2="0" y2="-65" stroke="#504945" stroke-width="0.4"/>
    <line x1="0" y1="0" x2="42" y2="-49" stroke="#504945" stroke-width="0.4"/>
    <line x1="0" y1="0" x2="62" y2="-5" stroke="#504945" stroke-width="0.4"/>
    <line x1="0" y1="0" x2="46" y2="44" stroke="#504945" stroke-width="0.4"/>
    <line x1="0" y1="0" x2="-8" y2="64" stroke="#504945" stroke-width="0.4"/>
    <line x1="0" y1="0" x2="-56" y2="32" stroke="#504945" stroke-width="0.4"/>
    <line x1="0" y1="0" x2="-48" y2="-40" stroke="#504945" stroke-width="0.4"/>
    <text x="0" y="-72" text-anchor="middle" fill="#665c54" font-size="7" font-family="-apple-system,sans-serif">Prod</text>
    <text x="50" y="-52" fill="#665c54" font-size="7" font-family="-apple-system,sans-serif">Qual</text>
    <text x="70" y="-1" fill="#665c54" font-size="7" font-family="-apple-system,sans-serif">Surv</text>
    <text x="52" y="52" fill="#665c54" font-size="7" font-family="-apple-system,sans-serif">Design</text>
    <text x="-14" y="76" text-anchor="middle" fill="#665c54" font-size="7" font-family="-apple-system,sans-serif">Breadth</text>
    <text x="-64" y="36" text-anchor="end" fill="#665c54" font-size="7" font-family="-apple-system,sans-serif">Debt</text>
    <text x="-56" y="-43" text-anchor="end" fill="#665c54" font-size="7" font-family="-apple-system,sans-serif">Indisp</text>
    <!-- Prod22 Qual92 Surv40 Design15 Breadth20 Debt25 Indisp5 -->
    <polygon points="0,-14 39,-45 25,-2 7,7 -2,13 -14,8 -2,-2" fill="#ebdbb2" fill-opacity="0.12" stroke="#ebdbb2" stroke-width="1.5" opacity="0.7"/>
    <text x="0" y="92" text-anchor="middle" fill="#ebdbb2" font-size="10" font-weight="700" font-family="-apple-system,sans-serif">— / — / Growing</text>
    <text x="0" y="104" text-anchor="middle" fill="#a89984" font-size="8" font-family="-apple-system,sans-serif">22 — high potential</text>
  </g>

  <!-- Footer -->
  <text x="480" y="940" text-anchor="middle" fill="#665c54" font-size="9" font-family="-apple-system,sans-serif">9 of 288 theoretical combinations (Role×Style×State = 6×8×6). Many are contradictory — real-world patterns converge to ~20-30 archetypes.</text>
</svg>
