<svg xmlns="http://www.w3.org/2000/svg" width="1060" height="540" viewBox="0 0 1060 540">
  <defs>
    <style>
      @import url('https://fonts.googleapis.com/css2?family=JetBrains+Mono:wght@400;700&amp;display=swap');
      text { font-family: 'JetBrains Mono', 'SF Mono', 'Menlo', monospace; font-size: 12px; }
      .header { fill: #56b6c2; font-weight: 700; }
      .rank { fill: #abb2bf; }
      .name { fill: #e5c07b; }
      .score { fill: #abb2bf; }
      .total-high { fill: #c678dd; font-weight: 700; }
      .total-mid { fill: #98c379; font-weight: 700; }
      .total-senior { fill: #e5c07b; }
      .total-low { fill: #abb2bf; }
      .total-junior { fill: #5c6370; }
      .type { fill: #61afef; }
      .conf { fill: #5c6370; }
      .active-yes { fill: #98c379; }
      .active-no { fill: #5c6370; }
      .domain-title { fill: #e06c75; font-weight: 700; font-size: 15px; }
      .summary { fill: #5c6370; font-size: 12px; }
      .prompt { fill: #98c379; font-size: 13px; }
      .cmd { fill: #abb2bf; font-size: 13px; }
    </style>
  </defs>

  <!-- Terminal background -->
  <rect width="1060" height="540" rx="10" fill="#282c34"/>

  <!-- Title bar -->
  <rect width="1060" height="32" rx="10" fill="#21252b"/>
  <rect y="22" width="1060" height="10" fill="#21252b"/>
  <circle cx="20" cy="16" r="6" fill="#e06c75"/>
  <circle cx="40" cy="16" r="6" fill="#e5c07b"/>
  <circle cx="60" cy="16" r="6" fill="#98c379"/>
  <text x="530" y="20" text-anchor="middle" fill="#5c6370" font-size="12">Terminal — eis analyze</text>

  <!-- Command line -->
  <text x="20" y="58" class="prompt">❯</text>
  <text x="36" y="58" class="cmd">eis analyze --config eis.yaml --recursive ~/workspace</text>

  <!-- Domain title -->
  <text x="20" y="88" class="domain-title">═══ Backend ═══</text>
  <text x="20" y="106" class="summary">Analyzed 12 repo(s), 10 engineers</text>

  <!-- Header -->
  <text x="20" y="136" class="header">#</text>
  <text x="40" y="136" class="header">Member</text>
  <text x="180" y="136" class="header">Active</text>
  <text x="236" y="136" class="header">Prod</text>
  <text x="282" y="136" class="header">Qual</text>
  <text x="328" y="136" class="header">Surv</text>
  <text x="374" y="136" class="header">Design</text>
  <text x="432" y="136" class="header">Breadth</text>
  <text x="500" y="136" class="header">Debt</text>
  <text x="546" y="136" class="header">Indisp</text>
  <text x="608" y="136" class="header">Total</text>
  <text x="668" y="136" class="header">Type</text>
  <text x="860" y="136" class="header">2nd</text>

  <!-- Separator -->
  <line x1="20" y1="142" x2="1040" y2="142" stroke="#3e4451" stroke-width="1"/>

  <!-- Row 1 - Architect (high score) -->
  <text x="20" y="162" class="rank">1</text>
  <text x="40" y="162" class="name">alice</text>
  <text x="196" y="162" class="active-yes">✓</text>
  <text x="236" y="162" class="score">100</text>
  <text x="282" y="162" class="score">64</text>
  <text x="328" y="162" class="score">100</text>
  <text x="374" y="162" class="score">100</text>
  <text x="432" y="162" class="score">91</text>
  <text x="500" y="162" class="score">79</text>
  <text x="546" y="162" class="score">100</text>
  <text x="608" y="162" class="total-high">92.4</text>
  <text x="668" y="162" class="type">Architect</text>
  <text x="760" y="162" class="conf">(1.00)</text>
  <text x="860" y="162" class="conf">Solid Cleaner (0.61)</text>

  <!-- Row 2 - Quality Anchor -->
  <text x="20" y="182" class="rank">2</text>
  <text x="40" y="182" class="name">bob</text>
  <text x="196" y="182" class="active-yes">✓</text>
  <text x="236" y="182" class="score">93</text>
  <text x="282" y="182" class="score">74</text>
  <text x="328" y="182" class="score">24</text>
  <text x="374" y="182" class="score">47</text>
  <text x="432" y="182" class="score">91</text>
  <text x="500" y="182" class="score">20</text>
  <text x="546" y="182" class="score">77</text>
  <text x="608" y="182" class="total-senior">52.7</text>
  <text x="668" y="182" class="type">Quality Anchor</text>
  <text x="796" y="182" class="conf">(0.85)</text>
  <text x="860" y="182" class="conf">Former Architect (0.65)</text>

  <!-- Row 3 - Quality Anchor -->
  <text x="20" y="202" class="rank">3</text>
  <text x="40" y="202" class="name">charlie</text>
  <text x="196" y="202" class="active-yes">✓</text>
  <text x="236" y="202" class="score">52</text>
  <text x="282" y="202" class="score">76</text>
  <text x="328" y="202" class="score">35</text>
  <text x="374" y="202" class="score">12</text>
  <text x="432" y="202" class="score">64</text>
  <text x="500" y="202" class="score">50</text>
  <text x="546" y="202" class="score">9</text>
  <text x="608" y="202" class="total-senior">40.7</text>
  <text x="668" y="202" class="type">Quality Anchor</text>
  <text x="796" y="202" class="conf">(0.90)</text>
  <text x="860" y="202" class="conf">Rescue Producer (0.08)</text>

  <!-- Row 4 - Mass Producer -->
  <text x="20" y="222" class="rank">4</text>
  <text x="40" y="222" class="name">diana</text>
  <text x="196" y="222" class="active-yes">✓</text>
  <text x="236" y="222" class="score">100</text>
  <text x="282" y="222" class="score">100</text>
  <text x="328" y="222" class="score">0</text>
  <text x="374" y="222" class="score">0</text>
  <text x="432" y="222" class="score">9</text>
  <text x="500" y="222" class="score">50</text>
  <text x="546" y="222" class="score">0</text>
  <text x="608" y="222" class="total-low">33.5</text>
  <text x="668" y="222" class="type">Mass Producer</text>
  <text x="788" y="222" class="conf">(1.00)</text>
  <text x="860" y="222" class="conf">Quality Anchor (1.00)</text>

  <!-- Row 5 - Spreader -->
  <text x="20" y="242" class="rank">5</text>
  <text x="40" y="242" class="name">eve</text>
  <text x="196" y="242" class="active-no">—</text>
  <text x="236" y="242" class="score">10</text>
  <text x="282" y="242" class="score">97</text>
  <text x="328" y="242" class="score">3</text>
  <text x="374" y="242" class="score">9</text>
  <text x="432" y="242" class="score">100</text>
  <text x="500" y="242" class="score">8</text>
  <text x="546" y="242" class="score">31</text>
  <text x="608" y="242" class="total-low">26.5</text>
  <text x="668" y="242" class="type">Spreader</text>
  <text x="752" y="242" class="conf">(1.00)</text>
  <text x="860" y="242" class="conf">Silent Killer (1.00)</text>

  <!-- Row 6 - Growing -->
  <text x="20" y="262" class="rank">6</text>
  <text x="40" y="262" class="name">frank</text>
  <text x="196" y="262" class="active-yes">✓</text>
  <text x="236" y="262" class="score">8</text>
  <text x="282" y="262" class="score">81</text>
  <text x="328" y="262" class="score">5</text>
  <text x="374" y="262" class="score">5</text>
  <text x="432" y="262" class="score">64</text>
  <text x="500" y="262" class="score">37</text>
  <text x="546" y="262" class="score">5</text>
  <text x="608" y="262" class="total-low">23.8</text>
  <text x="668" y="262" class="type">Growing</text>
  <text x="742" y="262" class="conf">(1.00)</text>
  <text x="860" y="262" class="conf">Spreader (0.59)</text>

  <!-- Row 7 - Growing -->
  <text x="20" y="282" class="rank">7</text>
  <text x="40" y="282" class="name">grace</text>
  <text x="196" y="282" class="active-yes">✓</text>
  <text x="236" y="282" class="score">17</text>
  <text x="282" y="282" class="score">70</text>
  <text x="328" y="282" class="score">1</text>
  <text x="374" y="282" class="score">0</text>
  <text x="432" y="282" class="score">64</text>
  <text x="500" y="282" class="score">42</text>
  <text x="546" y="282" class="score">0</text>
  <text x="608" y="282" class="total-low">22.5</text>
  <text x="668" y="282" class="type">Growing</text>
  <text x="742" y="282" class="conf">(0.75)</text>
  <text x="860" y="282" class="conf">Spreader (0.59)</text>

  <!-- Row 8 - Junior -->
  <text x="20" y="302" class="rank">8</text>
  <text x="40" y="302" class="name">henry</text>
  <text x="196" y="302" class="active-yes">✓</text>
  <text x="236" y="302" class="score">5</text>
  <text x="282" y="302" class="score">64</text>
  <text x="328" y="302" class="score">0</text>
  <text x="374" y="302" class="score">0</text>
  <text x="432" y="302" class="score">27</text>
  <text x="500" y="302" class="score">36</text>
  <text x="546" y="302" class="score">0</text>
  <text x="608" y="302" class="total-junior">15.4</text>
  <text x="668" y="302" class="conf">Growing (0.59)</text>

  <!-- Bus Factor -->
  <text x="20" y="342" style="fill: #e06c75; font-weight: 700; font-size: 14px;">Bus Factor Risks:</text>

  <text x="20" y="366" class="header">Level</text>
  <text x="120" y="366" class="header">Module</text>
  <text x="380" y="366" class="header">Owner</text>
  <text x="520" y="366" class="header">Share</text>
  <line x1="20" y1="372" x2="600" y2="372" stroke="#3e4451" stroke-width="1"/>

  <text x="20" y="392" style="fill: #e06c75; font-weight: 700;">CRITICAL</text>
  <text x="120" y="392" class="score">app/di</text>
  <text x="380" y="392" class="name">alice</text>
  <text x="520" y="392" class="score">95%</text>

  <text x="20" y="412" style="fill: #e06c75; font-weight: 700;">CRITICAL</text>
  <text x="120" y="412" class="score">tests/testhelper</text>
  <text x="380" y="412" class="name">alice</text>
  <text x="520" y="412" class="score">96%</text>

  <text x="20" y="432" style="fill: #e5c07b;">HIGH</text>
  <text x="120" y="432" class="score">app/core</text>
  <text x="380" y="432" class="name">alice</text>
  <text x="520" y="432" class="score">74%</text>

  <!-- Footer -->
  <text x="20" y="472" class="summary">Completed in 3m20s (28 repos total)</text>

  <!-- Score legend -->
  <text x="20" y="498" class="summary">  80-100  Irreplaceable core member: 1    60-79  Near-core: 1    40-59  Senior-level: 2    30-39  Mid: 1    20-29  Junior-Mid: 2    0-19  Junior: 1</text>

  <!-- Version -->
  <text x="20" y="520" class="summary">eis v0.6.0 — github.com/machuz/engineering-impact-score</text>
</svg>